P2
10 15
255
255 255 255 255 255 255 255 255 255 255 255 255 255 255 255 255 255 255 255 
255 255 255 0 0 0 0 255 255 255 255 255 0 0 255 255 0 0 255 255 255 255 0 255 
255 255 255 0 255 255 255 255 0 0 255 255 255 255 255 255 255 255 255 255 0 0 
0 255 255 255 255 255 255 255 255 255 255 0 255 255 255 255 0 255 255 255 255 
0 255 255 255 255 0 0 255 255 255 0 255 255 255 255 255 0 0 0 0 255 255 255 
255 255 255 255 255 255 255 255 255 255 255 255 255 255 255 255 255 255 255 
255 255 255 255 255 255 255 255 255 255 255 255 255 255 255 255 255 255 255 
255 255 255 
